<svg width="180" height="23" viewBox="0 0 180 23" xmlns="http://www.w3.org/2000/svg" xmlns:xlink="http://www.w3.org/1999/xlink">
    <path id="Path" fill="#000000" stroke="none" d="M 158.899994 20.799999 L 177.300003 20.799999 L 168.100006 11.6 L 158.899994 20.799999 Z M 168.5 11.200001 L 177.699997 20.400002 L 177.699997 2 L 168.5 11.200001 Z M 158.300003 21.299999 L 158.300003 1.400002 L 178.199997 1.400002 L 178.199997 21.299999 L 158.300003 21.299999 Z"/>
    <path id="path1" fill="#000000" stroke="none" d="M 2 21.299999 L 5.1 21.299999 C 5.5 21.299999 5.9 21.200001 6.3 21.099998 C 6.7 21 7 20.799999 7.3 20.5 C 7.6 20.200001 7.8 20 8 19.599998 C 8.2 19.299999 8.2 18.900002 8.2 18.5 C 8.2 18.099998 8.1 17.799999 8 17.5 C 7.9 17.200001 7.7 17 7.4 16.700001 C 7.2 16.5 6.9 16.299999 6.5 16.099998 C 6.8 15.900002 7.1 15.799999 7.4 15.5 C 7.7 15.299999 7.9 15 8 14.700001 C 8.1 14.400002 8.2 14 8.2 13.700001 C 8.2 13.299999 8.1 13 8 12.6 C 7.9 12.200001 7.6 12 7.3 11.700001 C 7 11.5 6.7 11.200001 6.3 11.1 C 5.9 11 5.5 10.9 5.1 10.9 L 2 10.9 L 2 21.299999 Z M 2.7 20.700001 L 2.7 11.6 L 5.1 11.6 C 5.4 11.6 5.7 11.700001 6 11.799999 C 6.3 11.9 6.5 12.1 6.8 12.299999 C 7 12.5 7.2 12.700001 7.3 13 C 7.4 13.200001 7.5 13.5 7.5 13.799999 C 7.5 14.099998 7.4 14.299999 7.3 14.599998 C 7.2 14.799999 7 15.099998 6.8 15.299999 C 6.6 15.5 6.3 15.599998 6 15.799999 C 5.7 16 5.4 16 5 16 L 5 16.599998 C 5.3 16.599998 5.7 16.700001 6 16.799999 C 6.3 16.900002 6.6 17.099998 6.8 17.299999 C 7 17.5 7.2 17.700001 7.3 18 C 7.4 18.299999 7.5 18.5 7.5 18.799999 C 7.5 19.099998 7.4 19.400002 7.3 19.599998 C 7.1 19.599998 7 19.799999 6.8 20 C 6.6 20.200001 6.3 20.299999 6 20.5 C 5.7 20.700001 5.4 20.700001 5.1 20.700001 C 5.1 20.700001 2.7 20.700001 2.7 20.700001 Z M 16.799999 21.299999 C 16.5 21 16.200001 20.700001 15.9 20.400002 C 15.6 20.099998 15.3 19.700001 14.9 19.400002 C 14.6 19.099998 14.2 18.700001 13.9 18.400002 C 13.6 18.099998 13.3 17.799999 13 17.5 C 13.7 17.5 14.3 17.400002 14.8 17.200001 C 15.3 17 15.8 16.900002 16.200001 16.599998 C 16.6 16.400002 16.9 16.099998 17.200001 15.799999 C 17.4 15.5 17.6 15.200001 17.700001 14.900002 C 17.799999 14.599998 17.9 14.299999 17.9 13.900002 C 17.9 13.5 17.799999 13.099998 17.6 12.700001 C 17.4 12.299999 17.1 12 16.799999 11.700001 C 16.4 11.4 16 11.200001 15.6 11 C 15.1 10.799999 14.6 10.799999 14.1 10.799999 L 9.9 10.799999 L 9.9 21.200001 L 10.7 21.200001 L 10.7 11.5 L 13.9 11.5 C 14.2 11.5 14.5 11.5 14.8 11.6 C 15.1 11.700001 15.4 11.799999 15.7 11.9 C 16 12 16.200001 12.200001 16.4 12.4 C 16.6 12.6 16.799999 12.799999 16.9 13.099998 C 17 13.5 17 13.700001 17 14 C 17 14.400002 16.9 14.700001 16.700001 15 C 16.5 15.299999 16.1 15.599998 15.7 15.900002 C 15.2 16.200001 14.6 16.400002 13.9 16.5 C 13.2 16.700001 12.3 16.700001 11.3 16.700001 L 15.8 21.200001 L 16.799999 21.299999 L 16.799999 21.299999 Z M 25.4 11 L 17.700001 21.400002 L 18.5 21.400002 C 19 20.700001 19.5 20 20 19.299999 C 20.5 18.599998 21 17.900002 21.6 17.200001 C 22.1 16.5 22.6 15.799999 23.200001 15.099998 L 27.6 15.099998 L 32.299999 21.400002 L 33.099998 21.400002 L 25.4 11 Z M 25.4 12.1 C 25.6 12.4 25.799999 12.700001 26 12.9 C 26.200001 13.200001 26.4 13.400002 26.5 13.700001 C 26.6 14 26.9 14.200001 27.1 14.5 L 23.700001 14.5 L 25.4 12.1 Z M 48.799999 21.299999 L 48.799999 11 L 48.099998 11 L 48.099998 20 L 34.5 10.9 L 34.5 21.299999 L 35.200001 21.299999 L 35.200001 12.200001 L 48.799999 21.299999 Z M 50.799999 21.299999 L 56.599998 21.299999 C 57.299999 21.299999 57.900002 21.200001 58.400002 21 C 58.900002 20.799999 59.5 20.599998 60 20.299999 C 60.5 20 60.900002 19.599998 61.299999 19.200001 C 61.599998 18.799999 61.900002 18.299999 62.099998 17.799999 C 62.299999 17.299999 62.400002 16.700001 62.400002 16.200001 C 62.400002 15.700001 62.299999 15.099998 62.099998 14.599998 C 61.900002 14.099998 61.599998 13.599998 61.299999 13.200001 C 60.900002 12.799999 60.5 12.4 60 12.1 C 59.5 11.799999 59 11.5 58.400002 11.4 C 57.799999 11.200001 57.200001 11.1 56.599998 11.1 L 50.799999 11.1 L 50.799999 21.299999 Z M 51.5 20.700001 L 51.5 11.6 L 56.599998 11.6 C 57.200001 11.6 57.700001 11.700001 58.200001 11.799999 C 58.700001 11.9 59.200001 12.200001 59.599998 12.4 C 60 12.700001 60.400002 13 60.700001 13.400002 C 61 13.799999 61.299999 14.200001 61.400002 14.599998 C 61.5 15 61.700001 15.5 61.700001 16 C 61.700001 16.5 61.599998 17 61.400002 17.400002 C 61.200001 17.799999 61 18.299999 60.700001 18.599998 C 60.400002 19 60 19.299999 59.599998 19.599998 C 59.200001 19.900002 58.700001 20.099998 58.200001 20.299999 C 57.700001 20.5 57.200001 20.5 56.599998 20.5 C 56.599998 20.700001 51.5 20.700001 51.5 20.700001 Z M 64.599998 13.700001 C 64.599998 13.400002 64.699997 13.099998 64.800003 12.9 C 64.900002 12.700001 65.099998 12.4 65.400002 12.200001 C 65.699997 12 66 11.9 66.300003 11.700001 C 66.599998 11.5 67 11.5 67.400002 11.5 C 67.800003 11.5 68.099998 11.6 68.5 11.700001 C 68.800003 11.799999 69.099998 12 69.400002 12.200001 C 69.699997 12.4 69.900002 12.700001 70 13 C 70.199997 13.299999 70.199997 13.599998 70.199997 13.900002 L 70.900002 13.900002 C 70.900002 13.5 70.800003 13.099998 70.599998 12.700001 C 70.400002 12.299999 70.199997 12 69.800003 11.700001 C 69.5 11.4 69.099998 11.200001 68.699997 11.1 C 68.300003 10.9 67.800003 10.9 67.300003 10.9 C 66.800003 10.9 66.400002 11 65.900002 11.1 C 65.5 11.200001 65.099998 11.4 64.800003 11.700001 C 64.5 12 64.199997 12.200001 64 12.6 C 63.799999 12.9 63.700001 13.299999 63.700001 13.700001 C 63.700001 14.099998 63.799999 14.400002 63.900002 14.700001 C 64 15 64.199997 15.200001 64.400002 15.400002 C 64.599998 15.599998 64.900002 15.700001 65.199997 15.900002 C 65.5 16 65.800003 16.099998 66.099998 16.200001 C 66.400002 16.299999 66.800003 16.400002 67.099998 16.400002 C 67.400002 16.5 67.800003 16.5 68.099998 16.599998 C 68.400002 16.700001 68.800003 16.799999 69 17 C 69.300003 17.200001 69.5 17.299999 69.699997 17.599998 C 69.900002 17.799999 69.900002 18.099998 70 18.5 C 70 18.799999 69.900002 19.099998 69.800003 19.299999 C 69.699997 19.5 69.5 19.799999 69.199997 20 C 68.900002 20.200001 68.599998 20.299999 68.300003 20.5 C 68 20.700001 67.599998 20.700001 67.199997 20.700001 C 66.800003 20.700001 66.400002 20.599998 66.099998 20.5 C 65.800003 20.400002 65.5 20.200001 65.199997 20 C 64.900002 19.799999 64.699997 19.5 64.599998 19.200001 C 64.400002 18.900002 64.400002 18.599998 64.400002 18.299999 L 63.700001 18.299999 C 63.700001 18.700001 63.799999 19.099998 64 19.5 C 64.199997 19.900002 64.400002 20.200001 64.800003 20.5 C 65.099998 20.799999 65.5 21 65.900002 21.200001 C 66.300003 21.400002 66.800003 21.400002 67.300003 21.400002 C 67.800003 21.400002 68.199997 21.299999 68.699997 21.200001 C 69.099998 21.099998 69.5 20.900002 69.800003 20.599998 C 70.099998 20.299999 70.400002 20.099998 70.599998 19.700001 C 70.800003 19.400002 70.900002 19 70.900002 18.599998 C 70.900002 18.200001 70.800003 17.900002 70.699997 17.599998 C 70.599998 17.299999 70.400002 17.099998 70.199997 16.900002 C 70 16.700001 69.699997 16.599998 69.400002 16.400002 C 69.099998 16.299999 68.800003 16.200001 68.5 16.099998 C 68.199997 16 67.800003 15.900002 67.5 15.900002 C 67.199997 15.799999 66.800003 15.700001 66.5 15.700001 C 66.199997 15.599998 65.800003 15.5 65.599998 15.299999 C 65.300003 15.099998 65.099998 15 64.900002 14.700001 C 64.699997 14.400002 64.599998 14.099998 64.599998 13.700001 Z M 80.800003 20.700001 L 80.800003 11 L 80.099998 11 L 80.099998 21.400002 L 88.099998 21.400002 L 88.099998 20.700001 C 88.099998 20.700001 80.800003 20.700001 80.800003 20.700001 Z M 89.400002 21.299999 L 97.400002 21.299999 L 97.400002 20.599998 L 90.199997 20.599998 L 90.199997 16.400002 L 96 16.400002 L 96 15.700001 L 90.199997 15.700001 L 90.199997 11.5 L 97.400002 11.5 L 97.400002 11 L 89.400002 11 L 89.400002 21.299999 Z M 106.199997 11 L 98.5 21.400002 L 99.300003 21.400002 C 99.800003 20.700001 100.300003 20 100.900002 19.299999 C 101.400002 18.599998 102 17.900002 102.5 17.200001 C 103 16.5 103.599998 15.799999 104.099998 15.099998 L 108.5 15.099998 L 113.199997 21.400002 L 114 21.400002 L 106.199997 11 Z M 106.199997 12.1 C 106.400002 12.4 106.599998 12.700001 106.800003 12.9 C 107 13.200001 107.199997 13.400002 107.300003 13.700001 C 107.5 13.900002 107.699997 14.200001 107.900002 14.5 L 104.5 14.5 L 106.199997 12.1 Z M 115.300003 21.299999 L 121.099998 21.299999 C 121.800003 21.299999 122.400002 21.200001 122.900002 21 C 123.5 20.799999 124 20.599998 124.5 20.299999 C 125 20 125.400002 19.599998 125.800003 19.200001 C 126.099998 18.799999 126.400002 18.299999 126.599998 17.799999 C 126.800003 17.299999 126.900002 16.700001 126.900002 16.200001 C 126.900002 15.599998 126.800003 15.099998 126.599998 14.599998 C 126.400002 14.099998 126.099998 13.599998 125.800003 13.200001 C 125.400002 12.799999 125 12.4 124.5 12.1 C 124 11.799999 123.5 11.5 122.900002 11.4 C 122.300003 11.200001 121.699997 11.1 121.099998 11.1 L 115.300003 11.1 L 115.300003 21.299999 Z M 116.099998 20.700001 L 116.099998 11.6 L 121.199997 11.6 C 121.800003 11.6 122.300003 11.700001 122.800003 11.799999 C 123.300003 11.9 123.800003 12.200001 124.199997 12.4 C 124.599998 12.700001 125 13 125.300003 13.400002 C 125.599998 13.799999 125.900002 14.200001 126 14.599998 C 126.099998 15 126.300003 15.5 126.300003 16 C 126.300003 16.5 126.199997 17 126 17.400002 C 125.800003 17.900002 125.599998 18.299999 125.300003 18.599998 C 125 19 124.599998 19.299999 124.199997 19.599998 C 123.800003 19.900002 123.300003 20.099998 122.800003 20.299999 C 122.300003 20.5 121.699997 20.5 121.199997 20.5 L 116.099998 20.700001 L 116.099998 20.700001 Z M 128.600006 21.299999 L 136.600006 21.299999 L 136.600006 20.599998 L 129.399994 20.599998 L 129.399994 16.400002 L 135.199997 16.400002 L 135.199997 15.700001 L 129.399994 15.700001 L 129.399994 11.5 L 136.600006 11.5 L 136.600006 11 L 128.600006 11 L 128.600006 21.299999 Z M 144.5 21.299999 C 144.199997 21 143.899994 20.700001 143.600006 20.299999 C 143.300003 20 143 19.599998 142.600006 19.200001 C 142.300003 18.799999 141.899994 18.5 141.600006 18.099998 C 141.300003 17.700001 141 17.400002 140.699997 17.099998 L 141.699997 17.099998 C 142.300003 17.099998 142.800003 17 143.199997 16.900002 C 143.600006 16.799999 144.100006 16.5 144.399994 16.200001 C 144.800003 15.900002 145 15.599998 145.199997 15.200001 C 145.399994 14.799999 145.5 14.400002 145.5 14 C 145.5 13.599998 145.399994 13.200001 145.199997 12.799999 C 145 12.4 144.699997 12.1 144.399994 11.799999 C 144 11.5 143.600006 11.299999 143.199997 11.1 C 142.699997 10.9 142.199997 10.9 141.699997 10.9 L 137.800003 10.9 L 137.800003 21.299999 L 138.5 21.299999 L 138.5 11.6 L 141.699997 11.6 C 142 11.6 142.300003 11.6 142.600006 11.700001 C 142.899994 11.799999 143.199997 11.9 143.5 12 C 143.800003 12.1 144 12.299999 144.199997 12.5 C 144.399994 12.700001 144.600006 12.9 144.699997 13.200001 C 144.800003 13.5 144.899994 13.700001 144.899994 14 C 144.899994 14.299999 144.800003 14.700001 144.600006 15 C 144.399994 15.299999 144.199997 15.5 143.899994 15.799999 C 143.600006 16 143.300003 16.200001 142.899994 16.299999 C 142.5 16.400002 142.100006 16.5 141.699997 16.5 L 139.199997 16.5 L 143.600006 21.299999 L 144.5 21.299999 L 144.5 21.299999 Z M 147.600006 13.700001 C 147.600006 13.400002 147.699997 13.099998 147.800003 12.9 C 147.899994 12.700001 148.100006 12.4 148.399994 12.200001 C 148.699997 12 149 11.9 149.300003 11.700001 C 149.600006 11.6 150 11.5 150.399994 11.5 C 150.800003 11.5 151.100006 11.6 151.5 11.700001 C 151.800003 11.799999 152.100006 12 152.399994 12.200001 C 152.699997 12.4 152.899994 12.700001 153 12.9 C 153.100006 13.200001 153.199997 13.5 153.199997 13.799999 L 153.899994 13.799999 C 153.899994 13.400002 153.800003 13 153.600006 12.6 C 153.399994 12.200001 153.199997 11.9 152.800003 11.6 C 152.5 11.299999 152.100006 11.1 151.699997 11 C 151.300003 10.799999 150.800003 10.799999 150.300003 10.799999 C 149.800003 10.799999 149.399994 10.9 148.899994 11 C 148.5 11.1 148.100006 11.299999 147.800003 11.6 C 147.5 11.9 147.199997 12.1 147 12.5 C 146.800003 12.799999 146.699997 13.200001 146.699997 13.599998 C 146.699997 14 146.800003 14.299999 146.899994 14.599998 C 147 14.900002 147.199997 15.099998 147.399994 15.299999 C 147.600006 15.5 147.899994 15.599998 148.199997 15.799999 C 148.5 15.900002 148.800003 16 149.100006 16.099998 C 149.399994 16.200001 149.800003 16.299999 150.100006 16.299999 C 150.5 16.400002 150.800003 16.5 151.100006 16.5 C 151.399994 16.5 151.699997 16.700001 152 16.900002 C 152.300003 17.099998 152.5 17.200001 152.699997 17.5 C 152.899994 17.799999 152.899994 18 152.899994 18.400002 C 152.899994 18.700001 152.800003 19 152.699997 19.200001 C 152.600006 19.400002 152.300003 19.700001 152.100006 19.900002 C 151.800003 20.099998 151.5 20.200001 151.199997 20.400002 C 150.899994 20.5 150.5 20.599998 150.100006 20.599998 C 149.699997 20.599998 149.399994 20.5 149 20.400002 C 148.699997 20.299999 148.399994 20.099998 148.100006 19.900002 C 147.899994 19.700001 147.699997 19.400002 147.5 19.099998 C 147.399994 18.799999 147.300003 18.5 147.300003 18.200001 L 146.600006 18.200001 C 146.600006 18.599998 146.699997 19 146.899994 19.400002 C 147.100006 19.799999 147.300003 20.099998 147.699997 20.400002 C 148.100006 20.700001 148.399994 20.900002 148.800003 21.099998 C 149.199997 21.299999 149.699997 21.299999 150.199997 21.299999 C 150.699997 21.299999 151.100006 21.200001 151.600006 21.099998 C 152 21 152.399994 20.799999 152.699997 20.5 C 153 20.299999 153.300003 20 153.5 19.599998 C 153.699997 19.299999 153.800003 18.900002 153.800003 18.5 C 153.800003 18.099998 153.699997 17.799999 153.600006 17.5 C 153.5 17.200001 153.300003 17 153.100006 16.799999 C 152.899994 16.599998 152.600006 16.5 152.300003 16.299999 C 152 16.200001 151.699997 16.099998 151.399994 16 C 151.100006 15.900002 150.699997 15.799999 150.399994 15.799999 C 150 15.700001 149.699997 15.599998 149.399994 15.599998 C 149.100006 15.599998 148.800003 15.400002 148.5 15.200001 C 148.199997 15 148 14.900002 147.800003 14.599998 C 147.600006 14.400002 147.600006 14.099998 147.600006 13.700001 Z"/>
</svg>
